# xmcd
# 
# Track frame offsets:
#     150
#     17050
#     36581
#     58410
#     81233
#     101438
#     125283
#     145141
#     160785
#     177021
#     189351
#     210533
#     241354
#     332969
# 
# Disc length: 4440
# 
# Revision: 2
# Processed by: cddbd v1.5.2PL0 Copyright (c) Steve Scherf et al.
# Submitted via: fre:ac v1.0.31
# 
DISCID=c211560e
DTITLE=Switchfoot - Nothing Is Sound
DYEAR=2005
DGENRE=Guitar Rock
TTITLE0=Lonely Nation
TTITLE1=Stars
TTITLE2=Happy Is A Yuppie Word
TTITLE3=The Shadow Proves The Sunshine
TTITLE4=Easier Than Love
TTITLE5=The Blues
TTITLE6=The Setting Sun
TTITLE7=Politicians
TTITLE8=Golden
TTITLE9=The Fatal Wound
TTITLE10=We Are One Tonight
TTITLE11=Daisy
TTITLE12=Data
TTITLE13=Blank
EXTD=YEAR: 2005
EXTT0=
EXTT1=
EXTT2=
EXTT3=
EXTT4=
EXTT5=
EXTT6=
EXTT7=
EXTT8=
EXTT9=
EXTT10=
EXTT11=
EXTT12=
EXTT13=
PLAYORDER=
